<mxfile host="app.diagrams.net" modified="2024-04-29T01:29:30.297Z" agent="Mozilla/5.0 (Windows NT 10.0; Win64; x64) AppleWebKit/537.36 (KHTML, like Gecko) Chrome/124.0.0.0 Safari/537.36" etag="2XvMFmsxd7rrFFS71LUL" version="23.1.2" type="device">
  <diagram name="Page-1" id="-LK7uHd6YPoa_5Az9Y-n">
    <mxGraphModel dx="1050" dy="565" grid="1" gridSize="10" guides="1" tooltips="1" connect="1" arrows="1" fold="1" page="1" pageScale="1" pageWidth="850" pageHeight="1100" math="0" shadow="0">
      <root>
        <mxCell id="0" />
        <mxCell id="1" parent="0" />
        <mxCell id="qfZqMTo1OIKMQQXBZoi_-2" value="" style="html=1;whiteSpace=wrap;align=center;" vertex="1" parent="1">
          <mxGeometry x="240" y="80" width="360" height="360" as="geometry" />
        </mxCell>
        <mxCell id="qfZqMTo1OIKMQQXBZoi_-3" value="Aplikasi Rumah Sakit" style="text;html=1;strokeColor=none;fillColor=none;align=center;verticalAlign=middle;whiteSpace=wrap;rounded=0;" vertex="1" parent="1">
          <mxGeometry x="345" y="80" width="150" height="30" as="geometry" />
        </mxCell>
        <mxCell id="qfZqMTo1OIKMQQXBZoi_-4" value="Pasien" style="shape=umlActor;verticalLabelPosition=bottom;verticalAlign=top;html=1;outlineConnect=0;" vertex="1" parent="1">
          <mxGeometry x="130" y="220" width="30" height="60" as="geometry" />
        </mxCell>
        <mxCell id="qfZqMTo1OIKMQQXBZoi_-7" value="Admin" style="shape=umlActor;verticalLabelPosition=bottom;verticalAlign=top;html=1;outlineConnect=0;" vertex="1" parent="1">
          <mxGeometry x="670" y="210" width="30" height="60" as="geometry" />
        </mxCell>
        <mxCell id="qfZqMTo1OIKMQQXBZoi_-8" value="Daftar" style="ellipse;whiteSpace=wrap;html=1;" vertex="1" parent="1">
          <mxGeometry x="270" y="240" width="80" height="40" as="geometry" />
        </mxCell>
        <mxCell id="qfZqMTo1OIKMQQXBZoi_-9" value="Notifikasi" style="ellipse;whiteSpace=wrap;html=1;" vertex="1" parent="1">
          <mxGeometry x="300" y="140" width="80" height="40" as="geometry" />
        </mxCell>
        <mxCell id="qfZqMTo1OIKMQQXBZoi_-10" value="Informasi" style="ellipse;whiteSpace=wrap;html=1;" vertex="1" parent="1">
          <mxGeometry x="310" y="350" width="80" height="40" as="geometry" />
        </mxCell>
        <mxCell id="qfZqMTo1OIKMQQXBZoi_-12" value="CREATE" style="ellipse;whiteSpace=wrap;html=1;" vertex="1" parent="1">
          <mxGeometry x="450" y="225" width="60" height="30" as="geometry" />
        </mxCell>
        <mxCell id="qfZqMTo1OIKMQQXBZoi_-13" value="READ" style="ellipse;whiteSpace=wrap;html=1;" vertex="1" parent="1">
          <mxGeometry x="445" y="280" width="60" height="30" as="geometry" />
        </mxCell>
        <mxCell id="qfZqMTo1OIKMQQXBZoi_-14" value="UPDATE" style="ellipse;whiteSpace=wrap;html=1;" vertex="1" parent="1">
          <mxGeometry x="490" y="330" width="60" height="30" as="geometry" />
        </mxCell>
        <mxCell id="qfZqMTo1OIKMQQXBZoi_-15" value="DELETE" style="ellipse;whiteSpace=wrap;html=1;" vertex="1" parent="1">
          <mxGeometry x="520" y="390" width="60" height="30" as="geometry" />
        </mxCell>
        <mxCell id="qfZqMTo1OIKMQQXBZoi_-16" value="Cetak Laporan" style="ellipse;whiteSpace=wrap;html=1;" vertex="1" parent="1">
          <mxGeometry x="445" y="140" width="120" height="40" as="geometry" />
        </mxCell>
        <mxCell id="qfZqMTo1OIKMQQXBZoi_-17" value="" style="endArrow=open;endFill=1;endSize=12;html=1;rounded=0;entryX=0;entryY=0.5;entryDx=0;entryDy=0;" edge="1" parent="1" source="qfZqMTo1OIKMQQXBZoi_-4" target="qfZqMTo1OIKMQQXBZoi_-8">
          <mxGeometry width="160" relative="1" as="geometry">
            <mxPoint x="170" y="230" as="sourcePoint" />
            <mxPoint x="500" y="290" as="targetPoint" />
          </mxGeometry>
        </mxCell>
        <mxCell id="qfZqMTo1OIKMQQXBZoi_-26" value="" style="endArrow=open;endFill=1;endSize=12;html=1;rounded=0;entryX=1;entryY=0.5;entryDx=0;entryDy=0;" edge="1" parent="1" target="qfZqMTo1OIKMQQXBZoi_-16">
          <mxGeometry width="160" relative="1" as="geometry">
            <mxPoint x="670" y="240" as="sourcePoint" />
            <mxPoint x="580" y="270" as="targetPoint" />
          </mxGeometry>
        </mxCell>
        <mxCell id="qfZqMTo1OIKMQQXBZoi_-27" value="" style="endArrow=open;endFill=1;endSize=12;html=1;rounded=0;entryX=1;entryY=1;entryDx=0;entryDy=0;" edge="1" parent="1" target="qfZqMTo1OIKMQQXBZoi_-12">
          <mxGeometry width="160" relative="1" as="geometry">
            <mxPoint x="670" y="240" as="sourcePoint" />
            <mxPoint x="590" y="160" as="targetPoint" />
          </mxGeometry>
        </mxCell>
        <mxCell id="qfZqMTo1OIKMQQXBZoi_-28" value="" style="endArrow=open;endFill=1;endSize=12;html=1;rounded=0;entryX=1;entryY=0.5;entryDx=0;entryDy=0;" edge="1" parent="1" target="qfZqMTo1OIKMQQXBZoi_-13">
          <mxGeometry width="160" relative="1" as="geometry">
            <mxPoint x="670" y="240" as="sourcePoint" />
            <mxPoint x="471" y="226" as="targetPoint" />
          </mxGeometry>
        </mxCell>
        <mxCell id="qfZqMTo1OIKMQQXBZoi_-29" value="" style="endArrow=open;endFill=1;endSize=12;html=1;rounded=0;entryX=0.5;entryY=0;entryDx=0;entryDy=0;" edge="1" parent="1" target="qfZqMTo1OIKMQQXBZoi_-14">
          <mxGeometry width="160" relative="1" as="geometry">
            <mxPoint x="670" y="240" as="sourcePoint" />
            <mxPoint x="460" y="275" as="targetPoint" />
          </mxGeometry>
        </mxCell>
        <mxCell id="qfZqMTo1OIKMQQXBZoi_-30" value="" style="endArrow=open;endFill=1;endSize=12;html=1;rounded=0;entryX=0.5;entryY=0;entryDx=0;entryDy=0;" edge="1" parent="1" target="qfZqMTo1OIKMQQXBZoi_-15">
          <mxGeometry width="160" relative="1" as="geometry">
            <mxPoint x="670" y="240" as="sourcePoint" />
            <mxPoint x="470" y="320" as="targetPoint" />
          </mxGeometry>
        </mxCell>
        <mxCell id="qfZqMTo1OIKMQQXBZoi_-31" value="" style="endArrow=open;endFill=1;endSize=12;html=1;rounded=0;exitX=0.5;exitY=0;exitDx=0;exitDy=0;entryX=0.5;entryY=1;entryDx=0;entryDy=0;" edge="1" parent="1" source="qfZqMTo1OIKMQQXBZoi_-8" target="qfZqMTo1OIKMQQXBZoi_-9">
          <mxGeometry width="160" relative="1" as="geometry">
            <mxPoint x="320" y="180" as="sourcePoint" />
            <mxPoint x="480" y="180" as="targetPoint" />
          </mxGeometry>
        </mxCell>
        <mxCell id="qfZqMTo1OIKMQQXBZoi_-33" value="" style="endArrow=open;endFill=1;endSize=12;html=1;rounded=0;exitX=0.5;exitY=1;exitDx=0;exitDy=0;entryX=0.5;entryY=0;entryDx=0;entryDy=0;" edge="1" parent="1" source="qfZqMTo1OIKMQQXBZoi_-8" target="qfZqMTo1OIKMQQXBZoi_-10">
          <mxGeometry width="160" relative="1" as="geometry">
            <mxPoint x="300" y="310" as="sourcePoint" />
            <mxPoint x="460" y="310" as="targetPoint" />
          </mxGeometry>
        </mxCell>
      </root>
    </mxGraphModel>
  </diagram>
</mxfile>
